<?xml version="1.0" encoding="utf-8"?>
<!-- Generator: Adobe Illustrator 19.2.1, SVG Export Plug-In . SVG Version: 6.00 Build 0)  -->
<svg version="1.1" id="layer" xmlns="http://www.w3.org/2000/svg" xmlns:xlink="http://www.w3.org/1999/xlink" x="0px" y="0px"
	 viewBox="0 0 652 652" style="enable-background:new 0 0 652 652;" xml:space="preserve">
<style type="text/css">
	.st0{fill:#E94F13;}
</style>
<g>
	<path class="st0" d="M49.9,321.5c0,7.8-6.4,14.2-14.2,14.2c-7.8,0-14.2-6.4-14.2-14.2c0-7.9,6.4-14.2,14.2-14.2
		C43.5,307.3,49.9,313.7,49.9,321.5 M607.2,307.3c-7.8,0-14.2,6.4-14.2,14.2c0,7.8,6.4,14.2,14.2,14.2c7.8,0,14.2-6.4,14.2-14.2
		C621.4,313.7,615.1,307.3,607.2,307.3"/>
	<path d="M163.6,359.6h-19.7l-5.5-19.7h-25.6l-5.4,19.7H88l22.8-76.1h30L163.6,359.6z M117,324.3h17l-6.1-22.1h-4.7L117,324.3z
		 M238,283.5c18,0,28.5,9.2,28.5,25.1c0,16.1-10.5,25.5-28.5,25.5h-16.6v25.6h-19.8v-76.1H238z M235.4,317.1
		c7.8,0,10.8-2.8,10.8-8.2c0-5.4-3-8.1-10.8-8.1h-14.1v16.3H235.4z M368.6,301h-22.8v58.7h-19.8V301h-22.7v-17.5h65.4V301z
		 M434.7,359.6h-19.8v-76.1h19.8V359.6z M480.9,283.5h20.8l14.4,57.4h4.7l14.3-57.4h20.3l-21.2,76.1h-31.9L480.9,283.5z"/>
</g>
</svg>
